<svg width="25" height="25" viewBox="0 0 25 25" fill="none" xmlns="http://www.w3.org/2000/svg">
<path d="M12.5 0C7.50754 0 3.44592 4.06162 3.44592 9.054C3.44592 15.2497 11.5484 24.3454 11.8934 24.7295C12.2174 25.0904 12.7831 25.0898 13.1066 24.7295C13.4515 24.3454 21.554 15.2497 21.554 9.054C21.5539 4.06162 17.4924 0 12.5 0ZM12.5 13.6093C9.98816 13.6093 7.9447 11.5658 7.9447 9.054C7.9447 6.54219 9.98821 4.49873 12.5 4.49873C15.0117 4.49873 17.0552 6.54224 17.0552 9.05405C17.0552 11.5659 15.0117 13.6093 12.5 13.6093Z" fill="#0D4C93"/>
</svg>
