<svg width="23" height="23" viewBox="0 0 23 23" fill="none" xmlns="http://www.w3.org/2000/svg">
<g clip-path="url(#clip0_0_282)">
<path d="M20.9785 2.74023H2.02147C1.7103 2.74023 1.41898 2.81674 1.15543 2.94283L11.4551 13.2425L13.7636 11.0239C13.7636 11.0239 13.7637 11.0237 13.7638 11.0236C13.7638 11.0235 13.764 11.0234 13.764 11.0234L21.8449 2.94301C21.5813 2.81683 21.2898 2.74023 20.9785 2.74023Z" fill="#0D4C93"/>
<path d="M22.7977 3.89624L15.1932 11.5003L22.7974 19.1046C22.9235 18.841 23 18.5497 23 18.2385V4.76197C23 4.45098 22.9237 4.15971 22.7977 3.89624Z" fill="#0D4C93"/>
<path d="M0.202598 3.89575C0.076502 4.15931 0 4.45063 0 4.7618V18.2384C0 18.5494 0.0764121 18.8407 0.202418 19.1042L7.80693 11.5001L0.202598 3.89575Z" fill="#0D4C93"/>
<path d="M14.2403 12.453L11.9315 14.6718C11.7999 14.8034 11.6275 14.8692 11.4551 14.8692C11.2828 14.8692 11.1103 14.8034 10.9787 14.6718L8.75977 12.4529L1.15512 20.057C1.41872 20.1832 1.71022 20.2598 2.02148 20.2598H20.9785C21.2897 20.2598 21.581 20.1833 21.8446 20.0572L14.2403 12.453Z" fill="#0D4C93"/>
</g>
<defs>
<clipPath id="clip0_0_282">
<rect width="23" height="23" fill="white"/>
</clipPath>
</defs>
</svg>
